<mxfile host="65bd71144e">
    <diagram id="Kz20nSVinejUPaZwfBGo" name="Page-1">
        <mxGraphModel dx="765" dy="1663" grid="1" gridSize="10" guides="1" tooltips="1" connect="1" arrows="1" fold="1" page="1" pageScale="1" pageWidth="850" pageHeight="1100" background="#ffffff" math="0" shadow="1">
            <root>
                <mxCell id="0"/>
                <mxCell id="1" parent="0"/>
                <UserObject label="" mermaidData="{&#xa;  &quot;data&quot;: &quot;classDiagram\n    %% Interfaces and Classes\n\n    class ChatMediator {\n        &lt;&lt;interface&gt;&gt;\n        +sendMessage(String message, User user)\n        +addUser(User user)\n    }\n\n    class ChatMediatorImpl {\n        -List~User~ users\n        +ChatMediatorImpl()\n        +sendMessage(String message, User user)\n        +addUser(User user)\n    }\n\n    class User {\n        -String name\n        -ChatMediator mediator\n        +User(String name, ChatMediator mediator)\n        +send(String message)\n        +receive(String message)\n    }\n\n    %% Relationships\n\n    ChatMediator &lt;|.. ChatMediatorImpl : implements\n    User --&gt; ChatMediator : communicates via\n    ChatMediatorImpl --&gt; User : maintains list of\n&quot;&#xa;}" id="2">
                    <mxCell style="shape=image;noLabel=1;verticalAlign=top;imageAspect=1;image=data:image/svg+xml,PHN2ZyBhcmlhLXJvbGVkZXNjcmlwdGlvbj0iY2xhc3MiIHJvbGU9ImdyYXBoaWNzLWRvY3VtZW50IGRvY3VtZW50IiB2aWV3Qm94PSIwIDAgNTY3IDc0Mi43OTk5ODc3OTI5Njg4IiBzdHlsZT0ibWF4LXdpZHRoOiA1NjdweDsiIGNsYXNzPSJjbGFzc0RpYWdyYW0iIHhtbG5zPSJodHRwOi8vd3d3LnczLm9yZy8yMDAwL3N2ZyIgd2lkdGg9IjEwMCUiIGlkPSJnZU1lcm1haWRPdXRwdXQtMTc1MzA4MTEwNzgzNCI+PHN0eWxlPiNnZU1lcm1haWRPdXRwdXQtMTc1MzA4MTEwNzgzNHtmb250LWZhbWlseToidHJlYnVjaGV0IG1zIix2ZXJkYW5hLGFyaWFsLHNhbnMtc2VyaWY7Zm9udC1zaXplOjE2cHg7ZmlsbDojMDAwMDAwO30jZ2VNZXJtYWlkT3V0cHV0LTE3NTMwODExMDc4MzQgLmVycm9yLWljb257ZmlsbDojNTUyMjIyO30jZ2VNZXJtYWlkT3V0cHV0LTE3NTMwODExMDc4MzQgLmVycm9yLXRleHR7ZmlsbDojNTUyMjIyO3N0cm9rZTojNTUyMjIyO30jZ2VNZXJtYWlkT3V0cHV0LTE3NTMwODExMDc4MzQgLmVkZ2UtdGhpY2tuZXNzLW5vcm1hbHtzdHJva2Utd2lkdGg6MXB4O30jZ2VNZXJtYWlkT3V0cHV0LTE3NTMwODExMDc4MzQgLmVkZ2UtdGhpY2tuZXNzLXRoaWNre3N0cm9rZS13aWR0aDozLjVweDt9I2dlTWVybWFpZE91dHB1dC0xNzUzMDgxMTA3ODM0IC5lZGdlLXBhdHRlcm4tc29saWR7c3Ryb2tlLWRhc2hhcnJheTowO30jZ2VNZXJtYWlkT3V0cHV0LTE3NTMwODExMDc4MzQgLmVkZ2UtdGhpY2tuZXNzLWludmlzaWJsZXtzdHJva2Utd2lkdGg6MDtmaWxsOm5vbmU7fSNnZU1lcm1haWRPdXRwdXQtMTc1MzA4MTEwNzgzNCAuZWRnZS1wYXR0ZXJuLWRhc2hlZHtzdHJva2UtZGFzaGFycmF5OjM7fSNnZU1lcm1haWRPdXRwdXQtMTc1MzA4MTEwNzgzNCAuZWRnZS1wYXR0ZXJuLWRvdHRlZHtzdHJva2UtZGFzaGFycmF5OjI7fSNnZU1lcm1haWRPdXRwdXQtMTc1MzA4MTEwNzgzNCAubWFya2Vye2ZpbGw6IzY2NjtzdHJva2U6IzY2Njt9I2dlTWVybWFpZE91dHB1dC0xNzUzMDgxMTA3ODM0IC5tYXJrZXIuY3Jvc3N7c3Ryb2tlOiM2NjY7fSNnZU1lcm1haWRPdXRwdXQtMTc1MzA4MTEwNzgzNCBzdmd7Zm9udC1mYW1pbHk6InRyZWJ1Y2hldCBtcyIsdmVyZGFuYSxhcmlhbCxzYW5zLXNlcmlmO2ZvbnQtc2l6ZToxNnB4O30jZ2VNZXJtYWlkT3V0cHV0LTE3NTMwODExMDc4MzQgcHttYXJnaW46MDt9I2dlTWVybWFpZE91dHB1dC0xNzUzMDgxMTA3ODM0IGcuY2xhc3NHcm91cCB0ZXh0e2ZpbGw6Izk5OTtzdHJva2U6bm9uZTtmb250LWZhbWlseToidHJlYnVjaGV0IG1zIix2ZXJkYW5hLGFyaWFsLHNhbnMtc2VyaWY7Zm9udC1zaXplOjEwcHg7fSNnZU1lcm1haWRPdXRwdXQtMTc1MzA4MTEwNzgzNCBnLmNsYXNzR3JvdXAgdGV4dCAudGl0bGV7Zm9udC13ZWlnaHQ6Ym9sZGVyO30jZ2VNZXJtYWlkT3V0cHV0LTE3NTMwODExMDc4MzQgLm5vZGVMYWJlbCwjZ2VNZXJtYWlkT3V0cHV0LTE3NTMwODExMDc4MzQgLmVkZ2VMYWJlbHtjb2xvcjojMTExMTExO30jZ2VNZXJtYWlkT3V0cHV0LTE3NTMwODExMDc4MzQgLmVkZ2VMYWJlbCAubGFiZWwgcmVjdHtmaWxsOiNlZWU7fSNnZU1lcm1haWRPdXRwdXQtMTc1MzA4MTEwNzgzNCAubGFiZWwgdGV4dHtmaWxsOiMxMTExMTE7fSNnZU1lcm1haWRPdXRwdXQtMTc1MzA4MTEwNzgzNCAubGFiZWxCa2d7YmFja2dyb3VuZDojZWVlO30jZ2VNZXJtYWlkT3V0cHV0LTE3NTMwODExMDc4MzQgLmVkZ2VMYWJlbCAubGFiZWwgc3BhbntiYWNrZ3JvdW5kOiNlZWU7fSNnZU1lcm1haWRPdXRwdXQtMTc1MzA4MTEwNzgzNCAuY2xhc3NUaXRsZXtmb250LXdlaWdodDpib2xkZXI7fSNnZU1lcm1haWRPdXRwdXQtMTc1MzA4MTEwNzgzNCAubm9kZSByZWN0LCNnZU1lcm1haWRPdXRwdXQtMTc1MzA4MTEwNzgzNCAubm9kZSBjaXJjbGUsI2dlTWVybWFpZE91dHB1dC0xNzUzMDgxMTA3ODM0IC5ub2RlIGVsbGlwc2UsI2dlTWVybWFpZE91dHB1dC0xNzUzMDgxMTA3ODM0IC5ub2RlIHBvbHlnb24sI2dlTWVybWFpZE91dHB1dC0xNzUzMDgxMTA3ODM0IC5ub2RlIHBhdGh7ZmlsbDojZWVlO3N0cm9rZTojOTk5O3N0cm9rZS13aWR0aDoxcHg7fSNnZU1lcm1haWRPdXRwdXQtMTc1MzA4MTEwNzgzNCAuZGl2aWRlcntzdHJva2U6Izk5OTtzdHJva2Utd2lkdGg6MTt9I2dlTWVybWFpZE91dHB1dC0xNzUzMDgxMTA3ODM0IGcuY2xpY2thYmxle2N1cnNvcjpwb2ludGVyO30jZ2VNZXJtYWlkT3V0cHV0LTE3NTMwODExMDc4MzQgZy5jbGFzc0dyb3VwIHJlY3R7ZmlsbDojZWVlO3N0cm9rZTojOTk5O30jZ2VNZXJtYWlkT3V0cHV0LTE3NTMwODExMDc4MzQgZy5jbGFzc0dyb3VwIGxpbmV7c3Ryb2tlOiM5OTk7c3Ryb2tlLXdpZHRoOjE7fSNnZU1lcm1haWRPdXRwdXQtMTc1MzA4MTEwNzgzNCAuY2xhc3NMYWJlbCAuYm94e3N0cm9rZTpub25lO3N0cm9rZS13aWR0aDowO2ZpbGw6I2VlZTtvcGFjaXR5OjAuNTt9I2dlTWVybWFpZE91dHB1dC0xNzUzMDgxMTA3ODM0IC5jbGFzc0xhYmVsIC5sYWJlbHtmaWxsOiM5OTk7Zm9udC1zaXplOjEwcHg7fSNnZU1lcm1haWRPdXRwdXQtMTc1MzA4MTEwNzgzNCAucmVsYXRpb257c3Ryb2tlOiM2NjY7c3Ryb2tlLXdpZHRoOjE7ZmlsbDpub25lO30jZ2VNZXJtYWlkT3V0cHV0LTE3NTMwODExMDc4MzQgLmRhc2hlZC1saW5le3N0cm9rZS1kYXNoYXJyYXk6Mzt9I2dlTWVybWFpZE91dHB1dC0xNzUzMDgxMTA3ODM0IC5kb3R0ZWQtbGluZXtzdHJva2UtZGFzaGFycmF5OjEgMjt9I2dlTWVybWFpZE91dHB1dC0xNzUzMDgxMTA3ODM0ICNjb21wb3NpdGlvblN0YXJ0LCNnZU1lcm1haWRPdXRwdXQtMTc1MzA4MTEwNzgzNCAuY29tcG9zaXRpb257ZmlsbDojNjY2IWltcG9ydGFudDtzdHJva2U6IzY2NiFpbXBvcnRhbnQ7c3Ryb2tlLXdpZHRoOjE7fSNnZU1lcm1haWRPdXRwdXQtMTc1MzA4MTEwNzgzNCAjY29tcG9zaXRpb25FbmQsI2dlTWVybWFpZE91dHB1dC0xNzUzMDgxMTA3ODM0IC5jb21wb3NpdGlvbntmaWxsOiM2NjYhaW1wb3J0YW50O3N0cm9rZTojNjY2IWltcG9ydGFudDtzdHJva2Utd2lkdGg6MTt9I2dlTWVybWFpZE91dHB1dC0xNzUzMDgxMTA3ODM0ICNkZXBlbmRlbmN5U3RhcnQsI2dlTWVybWFpZE91dHB1dC0xNzUzMDgxMTA3ODM0IC5kZXBlbmRlbmN5e2ZpbGw6IzY2NiFpbXBvcnRhbnQ7c3Ryb2tlOiM2NjYhaW1wb3J0YW50O3N0cm9rZS13aWR0aDoxO30jZ2VNZXJtYWlkT3V0cHV0LTE3NTMwODExMDc4MzQgI2RlcGVuZGVuY3lTdGFydCwjZ2VNZXJtYWlkT3V0cHV0LTE3NTMwODExMDc4MzQgLmRlcGVuZGVuY3l7ZmlsbDojNjY2IWltcG9ydGFudDtzdHJva2U6IzY2NiFpbXBvcnRhbnQ7c3Ryb2tlLXdpZHRoOjE7fSNnZU1lcm1haWRPdXRwdXQtMTc1MzA4MTEwNzgzNCAjZXh0ZW5zaW9uU3RhcnQsI2dlTWVybWFpZE91dHB1dC0xNzUzMDgxMTA3ODM0IC5leHRlbnNpb257ZmlsbDp0cmFuc3BhcmVudCFpbXBvcnRhbnQ7c3Ryb2tlOiM2NjYhaW1wb3J0YW50O3N0cm9rZS13aWR0aDoxO30jZ2VNZXJtYWlkT3V0cHV0LTE3NTMwODExMDc4MzQgI2V4dGVuc2lvbkVuZCwjZ2VNZXJtYWlkT3V0cHV0LTE3NTMwODExMDc4MzQgLmV4dGVuc2lvbntmaWxsOnRyYW5zcGFyZW50IWltcG9ydGFudDtzdHJva2U6IzY2NiFpbXBvcnRhbnQ7c3Ryb2tlLXdpZHRoOjE7fSNnZU1lcm1haWRPdXRwdXQtMTc1MzA4MTEwNzgzNCAjYWdncmVnYXRpb25TdGFydCwjZ2VNZXJtYWlkT3V0cHV0LTE3NTMwODExMDc4MzQgLmFnZ3JlZ2F0aW9ue2ZpbGw6dHJhbnNwYXJlbnQhaW1wb3J0YW50O3N0cm9rZTojNjY2IWltcG9ydGFudDtzdHJva2Utd2lkdGg6MTt9I2dlTWVybWFpZE91dHB1dC0xNzUzMDgxMTA3ODM0ICNhZ2dyZWdhdGlvbkVuZCwjZ2VNZXJtYWlkT3V0cHV0LTE3NTMwODExMDc4MzQgLmFnZ3JlZ2F0aW9ue2ZpbGw6dHJhbnNwYXJlbnQhaW1wb3J0YW50O3N0cm9rZTojNjY2IWltcG9ydGFudDtzdHJva2Utd2lkdGg6MTt9I2dlTWVybWFpZE91dHB1dC0xNzUzMDgxMTA3ODM0ICNsb2xsaXBvcFN0YXJ0LCNnZU1lcm1haWRPdXRwdXQtMTc1MzA4MTEwNzgzNCAubG9sbGlwb3B7ZmlsbDojZWVlIWltcG9ydGFudDtzdHJva2U6IzY2NiFpbXBvcnRhbnQ7c3Ryb2tlLXdpZHRoOjE7fSNnZU1lcm1haWRPdXRwdXQtMTc1MzA4MTEwNzgzNCAjbG9sbGlwb3BFbmQsI2dlTWVybWFpZE91dHB1dC0xNzUzMDgxMTA3ODM0IC5sb2xsaXBvcHtmaWxsOiNlZWUhaW1wb3J0YW50O3N0cm9rZTojNjY2IWltcG9ydGFudDtzdHJva2Utd2lkdGg6MTt9I2dlTWVybWFpZE91dHB1dC0xNzUzMDgxMTA3ODM0IC5lZGdlVGVybWluYWxze2ZvbnQtc2l6ZToxMXB4O2xpbmUtaGVpZ2h0OmluaXRpYWw7fSNnZU1lcm1haWRPdXRwdXQtMTc1MzA4MTEwNzgzNCAuY2xhc3NUaXRsZVRleHR7dGV4dC1hbmNob3I6bWlkZGxlO2ZvbnQtc2l6ZToxOHB4O2ZpbGw6IzAwMDAwMDt9I2dlTWVybWFpZE91dHB1dC0xNzUzMDgxMTA3ODM0IDpyb290ey0tbWVybWFpZC1mb250LWZhbWlseToidHJlYnVjaGV0IG1zIix2ZXJkYW5hLGFyaWFsLHNhbnMtc2VyaWY7fTwvc3R5bGU+PGc+PGRlZnM+PG1hcmtlciBvcmllbnQ9ImF1dG8iIG1hcmtlckhlaWdodD0iMjQwIiBtYXJrZXJXaWR0aD0iMTkwIiByZWZZPSI3IiByZWZYPSIxOCIgY2xhc3M9Im1hcmtlciBhZ2dyZWdhdGlvbiBjbGFzcyIgaWQ9ImdlTWVybWFpZE91dHB1dC0xNzUzMDgxMTA3ODM0X2NsYXNzLWFnZ3JlZ2F0aW9uU3RhcnQiPjxwYXRoIGQ9Ik0gMTgsNyBMOSwxMyBMMSw3IEw5LDEgWiI+PC9wYXRoPjwvbWFya2VyPjwvZGVmcz48ZGVmcz48bWFya2VyIG9yaWVudD0iYXV0byIgbWFya2VySGVpZ2h0PSIyOCIgbWFya2VyV2lkdGg9IjIwIiByZWZZPSI3IiByZWZYPSIxIiBjbGFzcz0ibWFya2VyIGFnZ3JlZ2F0aW9uIGNsYXNzIiBpZD0iZ2VNZXJtYWlkT3V0cHV0LTE3NTMwODExMDc4MzRfY2xhc3MtYWdncmVnYXRpb25FbmQiPjxwYXRoIGQ9Ik0gMTgsNyBMOSwxMyBMMSw3IEw5LDEgWiI+PC9wYXRoPjwvbWFya2VyPjwvZGVmcz48ZGVmcz48bWFya2VyIG9yaWVudD0iYXV0byIgbWFya2VySGVpZ2h0PSIyNDAiIG1hcmtlcldpZHRoPSIxOTAiIHJlZlk9IjciIHJlZlg9IjE4IiBjbGFzcz0ibWFya2VyIGV4dGVuc2lvbiBjbGFzcyIgaWQ9ImdlTWVybWFpZE91dHB1dC0xNzUzMDgxMTA3ODM0X2NsYXNzLWV4dGVuc2lvblN0YXJ0Ij48cGF0aCBkPSJNIDEsNyBMMTgsMTMgViAxIFoiPjwvcGF0aD48L21hcmtlcj48L2RlZnM+PGRlZnM+PG1hcmtlciBvcmllbnQ9ImF1dG8iIG1hcmtlckhlaWdodD0iMjgiIG1hcmtlcldpZHRoPSIyMCIgcmVmWT0iNyIgcmVmWD0iMSIgY2xhc3M9Im1hcmtlciBleHRlbnNpb24gY2xhc3MiIGlkPSJnZU1lcm1haWRPdXRwdXQtMTc1MzA4MTEwNzgzNF9jbGFzcy1leHRlbnNpb25FbmQiPjxwYXRoIGQ9Ik0gMSwxIFYgMTMgTDE4LDcgWiI+PC9wYXRoPjwvbWFya2VyPjwvZGVmcz48ZGVmcz48bWFya2VyIG9yaWVudD0iYXV0byIgbWFya2VySGVpZ2h0PSIyNDAiIG1hcmtlcldpZHRoPSIxOTAiIHJlZlk9IjciIHJlZlg9IjE4IiBjbGFzcz0ibWFya2VyIGNvbXBvc2l0aW9uIGNsYXNzIiBpZD0iZ2VNZXJtYWlkT3V0cHV0LTE3NTMwODExMDc4MzRfY2xhc3MtY29tcG9zaXRpb25TdGFydCI+PHBhdGggZD0iTSAxOCw3IEw5LDEzIEwxLDcgTDksMSBaIj48L3BhdGg+PC9tYXJrZXI+PC9kZWZzPjxkZWZzPjxtYXJrZXIgb3JpZW50PSJhdXRvIiBtYXJrZXJIZWlnaHQ9IjI4IiBtYXJrZXJXaWR0aD0iMjAiIHJlZlk9IjciIHJlZlg9IjEiIGNsYXNzPSJtYXJrZXIgY29tcG9zaXRpb24gY2xhc3MiIGlkPSJnZU1lcm1haWRPdXRwdXQtMTc1MzA4MTEwNzgzNF9jbGFzcy1jb21wb3NpdGlvbkVuZCI+PHBhdGggZD0iTSAxOCw3IEw5LDEzIEwxLDcgTDksMSBaIj48L3BhdGg+PC9tYXJrZXI+PC9kZWZzPjxkZWZzPjxtYXJrZXIgb3JpZW50PSJhdXRvIiBtYXJrZXJIZWlnaHQ9IjI0MCIgbWFya2VyV2lkdGg9IjE5MCIgcmVmWT0iNyIgcmVmWD0iNiIgY2xhc3M9Im1hcmtlciBkZXBlbmRlbmN5IGNsYXNzIiBpZD0iZ2VNZXJtYWlkT3V0cHV0LTE3NTMwODExMDc4MzRfY2xhc3MtZGVwZW5kZW5jeVN0YXJ0Ij48cGF0aCBkPSJNIDUsNyBMOSwxMyBMMSw3IEw5LDEgWiI+PC9wYXRoPjwvbWFya2VyPjwvZGVmcz48ZGVmcz48bWFya2VyIG9yaWVudD0iYXV0byIgbWFya2VySGVpZ2h0PSIyOCIgbWFya2VyV2lkdGg9IjIwIiByZWZZPSI3IiByZWZYPSIxMyIgY2xhc3M9Im1hcmtlciBkZXBlbmRlbmN5IGNsYXNzIiBpZD0iZ2VNZXJtYWlkT3V0cHV0LTE3NTMwODExMDc4MzRfY2xhc3MtZGVwZW5kZW5jeUVuZCI+PHBhdGggZD0iTSAxOCw3IEw5LDEzIEwxNCw3IEw5LDEgWiI+PC9wYXRoPjwvbWFya2VyPjwvZGVmcz48ZGVmcz48bWFya2VyIG9yaWVudD0iYXV0byIgbWFya2VySGVpZ2h0PSIyNDAiIG1hcmtlcldpZHRoPSIxOTAiIHJlZlk9IjciIHJlZlg9IjEzIiBjbGFzcz0ibWFya2VyIGxvbGxpcG9wIGNsYXNzIiBpZD0iZ2VNZXJtYWlkT3V0cHV0LTE3NTMwODExMDc4MzRfY2xhc3MtbG9sbGlwb3BTdGFydCI+PGNpcmNsZSByPSI2IiBjeT0iNyIgY3g9IjciIGZpbGw9InRyYW5zcGFyZW50IiBzdHJva2U9ImJsYWNrIj48L2NpcmNsZT48L21hcmtlcj48L2RlZnM+PGRlZnM+PG1hcmtlciBvcmllbnQ9ImF1dG8iIG1hcmtlckhlaWdodD0iMjQwIiBtYXJrZXJXaWR0aD0iMTkwIiByZWZZPSI3IiByZWZYPSIxIiBjbGFzcz0ibWFya2VyIGxvbGxpcG9wIGNsYXNzIiBpZD0iZ2VNZXJtYWlkT3V0cHV0LTE3NTMwODExMDc4MzRfY2xhc3MtbG9sbGlwb3BFbmQiPjxjaXJjbGUgcj0iNiIgY3k9IjciIGN4PSI3IiBmaWxsPSJ0cmFuc3BhcmVudCIgc3Ryb2tlPSJibGFjayI+PC9jaXJjbGU+PC9tYXJrZXI+PC9kZWZzPjxnIGNsYXNzPSJyb290Ij48ZyBjbGFzcz0iY2x1c3RlcnMiPjwvZz48ZyBjbGFzcz0iZWRnZVBhdGhzIj48cGF0aCBtYXJrZXItc3RhcnQ9InVybCgjZ2VNZXJtYWlkT3V0cHV0LTE3NTMwODExMDc4MzRfY2xhc3MtZXh0ZW5zaW9uU3RhcnQpIiBzdHlsZT0iOyIgY2xhc3M9ImVkZ2UtdGhpY2tuZXNzLW5vcm1hbCBlZGdlLXBhdHRlcm4tZGFzaGVkIHJlbGF0aW9uIiBpZD0iaWRfQ2hhdE1lZGlhdG9yX0NoYXRNZWRpYXRvckltcGxfMSIgZD0iTTIzMC4wODUsMTkzLjU2MkwyMjUuMTg1LDE5Ny42NjhDMjIwLjI4NiwyMDEuNzc1LDIxMC40ODcsMjA5Ljk4NywyMDUuNTg3LDIyMC4xMjdDMjAwLjY4OCwyMzAuMjY3LDIwMC42ODgsMjQyLjMzMywyMDAuNjg4LDI0OC4zNjdMMjAwLjY4OCwyNTQuNCI+PC9wYXRoPjxwYXRoIG1hcmtlci1lbmQ9InVybCgjZ2VNZXJtYWlkT3V0cHV0LTE3NTMwODExMDc4MzRfY2xhc3MtZGVwZW5kZW5jeUVuZCkiIHN0eWxlPSI7IiBjbGFzcz0iZWRnZS10aGlja25lc3Mtbm9ybWFsIGVkZ2UtcGF0dGVybi1zb2xpZCByZWxhdGlvbiIgaWQ9ImlkX1VzZXJfQ2hhdE1lZGlhdG9yXzIiIGQ9Ik00NTcuNzg1LDUxOC44TDQ2My45MzUsNTEyLjc2N0M0NzAuMDg2LDUwNi43MzMsNDgyLjM4Nyw0OTQuNjY3LDQ4OC41MzcsNDY2LjZDNDk0LjY4OCw0MzguNTMzLDQ5NC42ODgsMzk0LjQ2Nyw0OTQuNjg4LDM1MC40QzQ5NC42ODgsMzA2LjMzMyw0OTQuNjg4LDI2Mi4yNjcsNDg4LjI1NSwyMzQuODQyQzQ4MS44MjMsMjA3LjQxOCw0NjguOTU4LDE5Ni42MzYsNDYyLjUyNSwxOTEuMjQ1TDQ1Ni4wOTMsMTg1Ljg1NCI+PC9wYXRoPjxwYXRoIG1hcmtlci1lbmQ9InVybCgjZ2VNZXJtYWlkT3V0cHV0LTE3NTMwODExMDc4MzRfY2xhc3MtZGVwZW5kZW5jeUVuZCkiIHN0eWxlPSI7IiBjbGFzcz0iZWRnZS10aGlja25lc3Mtbm9ybWFsIGVkZ2UtcGF0dGVybi1zb2xpZCByZWxhdGlvbiIgaWQ9ImlkX0NoYXRNZWRpYXRvckltcGxfVXNlcl8zIiBkPSJNMjAwLjY4OCw0NDYuNEwyMDAuNjg4LDQ1Mi40MzNDMjAwLjY4OCw0NTguNDY3LDIwMC42ODgsNDcwLjUzMywyMDYuMTI0LDQ4MS45QzIxMS41NjEsNDkzLjI2NiwyMjIuNDM0LDUwMy45MzIsMjI3Ljg3MSw1MDkuMjY1TDIzMy4zMDcsNTE0LjU5OCI+PC9wYXRoPjwvZz48ZyBjbGFzcz0iZWRnZUxhYmVscyI+PGcgdHJhbnNmb3JtPSJ0cmFuc2xhdGUoMjAwLjY4NzUsIDIxOC4xOTk5OTk4MDkyNjUxNCkiIGNsYXNzPSJlZGdlTGFiZWwiPjxnIHRyYW5zZm9ybT0idHJhbnNsYXRlKC00My44ODc1MDA3NjI5Mzk0NSwgLTExLjE5OTk5OTgwOTI2NTEzNykiIGNsYXNzPSJsYWJlbCI+PGc+PHJlY3QgaGVpZ2h0PSIyMi4zOTk5OTk2MTg1MzAyNzMiIHdpZHRoPSI4Ny43NzUwMDE1MjU4Nzg5IiB5PSItMS4xOTk5OTk5ODgwNzkwNzEiIHg9Ii0yIiBzdHlsZT0iO2Rpc3BsYXk6IGlubGluZS1ibG9jayIgY2xhc3M9ImJhY2tncm91bmQiPjwvcmVjdD48dGV4dCBzdHlsZT0iO2Rpc3BsYXk6IGlubGluZS1ibG9jayIgeT0iLTEwLjEiPjx0c3BhbiBkeT0iMS4xZW0iIHk9Ii0wLjFlbSIgeD0iMCIgY2xhc3M9InRleHQtb3V0ZXItdHNwYW4iPjx0c3BhbiBmb250LXdlaWdodD0ibm9ybWFsIiBjbGFzcz0idGV4dC1pbm5lci10c3BhbiIgZm9udC1zdHlsZT0ibm9ybWFsIj5pbXBsZW1lbnRzPC90c3Bhbj48L3RzcGFuPjwvdGV4dD48L2c+PC9nPjwvZz48ZyB0cmFuc2Zvcm09InRyYW5zbGF0ZSg0OTQuNjg3NSwgMzUwLjM5OTk5OTYxODUzMDMpIiBjbGFzcz0iZWRnZUxhYmVsIj48ZyB0cmFuc2Zvcm09InRyYW5zbGF0ZSgtNjYuMzEyNSwgLTExLjE5OTk5OTgwOTI2NTEzNykiIGNsYXNzPSJsYWJlbCI+PGc+PHJlY3QgaGVpZ2h0PSIyMi4zOTk5OTk2MTg1MzAyNzMiIHdpZHRoPSIxMzIuNjI1IiB5PSItMS4xOTk5OTk5ODgwNzkwNzEiIHg9Ii0yIiBzdHlsZT0iO2Rpc3BsYXk6IGlubGluZS1ibG9jayIgY2xhc3M9ImJhY2tncm91bmQiPjwvcmVjdD48dGV4dCBzdHlsZT0iO2Rpc3BsYXk6IGlubGluZS1ibG9jayIgeT0iLTEwLjEiPjx0c3BhbiBkeT0iMS4xZW0iIHk9Ii0wLjFlbSIgeD0iMCIgY2xhc3M9InRleHQtb3V0ZXItdHNwYW4iPjx0c3BhbiBmb250LXdlaWdodD0ibm9ybWFsIiBjbGFzcz0idGV4dC1pbm5lci10c3BhbiIgZm9udC1zdHlsZT0ibm9ybWFsIj5jb21tdW5pY2F0ZXM8L3RzcGFuPjx0c3BhbiBmb250LXdlaWdodD0ibm9ybWFsIiBjbGFzcz0idGV4dC1pbm5lci10c3BhbiIgZm9udC1zdHlsZT0ibm9ybWFsIj4gdmlhPC90c3Bhbj48L3RzcGFuPjwvdGV4dD48L2c+PC9nPjwvZz48ZyB0cmFuc2Zvcm09InRyYW5zbGF0ZSgyMDAuNjg3NSwgNDgyLjU5OTk5OTQyNzc5NTQpIiBjbGFzcz0iZWRnZUxhYmVsIj48ZyB0cmFuc2Zvcm09InRyYW5zbGF0ZSgtNjAuMTI4MTI0MjM3MDYwNTUsIC0xMS4xOTk5OTk4MDkyNjUxMzcpIiBjbGFzcz0ibGFiZWwiPjxnPjxyZWN0IGhlaWdodD0iMjIuMzk5OTk5NjE4NTMwMjczIiB3aWR0aD0iMTIwLjI1NjI1NjEwMzUxNTYyIiB5PSItMS4xOTk5OTk5ODgwNzkwNzEiIHg9Ii0yIiBzdHlsZT0iO2Rpc3BsYXk6IGlubGluZS1ibG9jayIgY2xhc3M9ImJhY2tncm91bmQiPjwvcmVjdD48dGV4dCBzdHlsZT0iO2Rpc3BsYXk6IGlubGluZS1ibG9jayIgeT0iLTEwLjEiPjx0c3BhbiBkeT0iMS4xZW0iIHk9Ii0wLjFlbSIgeD0iMCIgY2xhc3M9InRleHQtb3V0ZXItdHNwYW4iPjx0c3BhbiBmb250LXdlaWdodD0ibm9ybWFsIiBjbGFzcz0idGV4dC1pbm5lci10c3BhbiIgZm9udC1zdHlsZT0ibm9ybWFsIj5tYWludGFpbnM8L3RzcGFuPjx0c3BhbiBmb250LXdlaWdodD0ibm9ybWFsIiBjbGFzcz0idGV4dC1pbm5lci10c3BhbiIgZm9udC1zdHlsZT0ibm9ybWFsIj4gbGlzdDwvdHNwYW4+PHRzcGFuIGZvbnQtd2VpZ2h0PSJub3JtYWwiIGNsYXNzPSJ0ZXh0LWlubmVyLXRzcGFuIiBmb250LXN0eWxlPSJub3JtYWwiPiBvZjwvdHNwYW4+PC90c3Bhbj48L3RleHQ+PC9nPjwvZz48L2c+PC9nPjxnIGNsYXNzPSJub2RlcyI+PGcgdHJhbnNmb3JtPSJ0cmFuc2xhdGUoMzQ3LjY4NzUsIDk1KSIgaWQ9ImNsYXNzSWQtQ2hhdE1lZGlhdG9yLTAiIGNsYXNzPSJub2RlIGRlZmF1bHQiPjxnIGNsYXNzPSJiYXNpYyBsYWJlbC1jb250YWluZXIiPjxwYXRoIHN0eWxlPSIiIGZpbGw9IiNlZWUiIHN0cm9rZS13aWR0aD0iMCIgc3Ryb2tlPSJub25lIiBkPSJNLTE4NC42MjgxMjgwNTE3NTc4IC04NyBMMTg0LjYyODEyODA1MTc1NzggLTg3IEwxODQuNjI4MTI4MDUxNzU3OCA4NyBMLTE4NC42MjgxMjgwNTE3NTc4IDg3Ij48L3BhdGg+PHBhdGggc3R5bGU9IiIgZmlsbD0ibm9uZSIgc3Ryb2tlLXdpZHRoPSIxLjMiIHN0cm9rZT0iIzk5OSIgZD0iTS0xODQuNjI4MTI4MDUxNzU3OCAtODcgQy00NC44MTQxNDQxODc2Njc0MSAtODcsIDk0Ljk5OTgzOTY3NjQyMyAtODcsIDE4NC42MjgxMjgwNTE3NTc4IC04NyBNLTE4NC42MjgxMjgwNTE3NTc4IC04NyBDLTEwNS41MjI2MzI3MTQzNTYwNSAtODcsIC0yNi40MTcxMzczNzY5NTQyODcgLTg3LCAxODQuNjI4MTI4MDUxNzU3OCAtODcgTTE4NC42MjgxMjgwNTE3NTc4IC04NyBDMTg0LjYyODEyODA1MTc1NzggLTE4LjkyMzI0ODgwMjAwMzk5NywgMTg0LjYyODEyODA1MTc1NzggNDkuMTUzNTAyMzk1OTkyMDEsIDE4NC42MjgxMjgwNTE3NTc4IDg3IE0xODQuNjI4MTI4MDUxNzU3OCAtODcgQzE4NC42MjgxMjgwNTE3NTc4IC00Ni4zMTg3NTk2OTMzNzg2NywgMTg0LjYyODEyODA1MTc1NzggLTUuNjM3NTE5Mzg2NzU3MzMzLCAxODQuNjI4MTI4MDUxNzU3OCA4NyBNMTg0LjYyODEyODA1MTc1NzggODcgQzQwLjMxNjQzMTA3OTQ0MDE4IDg3LCAtMTAzLjk5NTI2NTg5Mjg3NzQ2IDg3LCAtMTg0LjYyODEyODA1MTc1NzggODcgTTE4NC42MjgxMjgwNTE3NTc4IDg3IEM5NC4wMTE3Mzc1MjMwMDkyIDg3LCAzLjM5NTM0Njk5NDI2MDU5MiA4NywgLTE4NC42MjgxMjgwNTE3NTc4IDg3IE0tMTg0LjYyODEyODA1MTc1NzggODcgQy0xODQuNjI4MTI4MDUxNzU3OCA0My4zOTYzNzY3NDg1NjQ4NCwgLTE4NC42MjgxMjgwNTE3NTc4IC0wLjIwNzI0NjUwMjg3MDMxOTIsIC0xODQuNjI4MTI4MDUxNzU3OCAtODcgTS0xODQuNjI4MTI4MDUxNzU3OCA4NyBDLTE4NC42MjgxMjgwNTE3NTc4IDQyLjM2NzAyNDU0MDA3MDQsIC0xODQuNjI4MTI4MDUxNzU3OCAtMi4yNjU5NTA5MTk4NTkxOTM0LCAtMTg0LjYyODEyODA1MTc1NzggLTg3Ij48L3BhdGg+PC9nPjxnIHRyYW5zZm9ybT0idHJhbnNsYXRlKC00MS4xNzQ5OTkyMzcwNjA1NSwgLTYzKSIgY2xhc3M9ImFubm90YXRpb24tZ3JvdXAgdGV4dCI+PGcgdHJhbnNmb3JtPSJ0cmFuc2xhdGUoMCwtMTIpIiBzdHlsZT0iIiBjbGFzcz0ibGFiZWwiPjxmb3JlaWduT2JqZWN0IGhlaWdodD0iMjQiIHdpZHRoPSI4Mi4zNDk5OTg0NzQxMjExIj48ZGl2IHN0eWxlPSJkaXNwbGF5OiB0YWJsZS1jZWxsOyB3aGl0ZS1zcGFjZTogbm93cmFwOyBsaW5lLWhlaWdodDogMS41OyBtYXgtd2lkdGg6IDEyN3B4OyB0ZXh0LWFsaWduOiBjZW50ZXI7IiB4bWxucz0iaHR0cDovL3d3dy53My5vcmcvMTk5OS94aHRtbCI+PHNwYW4gc3R5bGU9IiIgY2xhc3M9Im5vZGVMYWJlbCBtYXJrZG93bi1ub2RlLWxhYmVsIj48cD7Cq2ludGVyZmFjZcK7PC9wPjwvc3Bhbj48L2Rpdj48L2ZvcmVpZ25PYmplY3Q+PC9nPjwvZz48ZyB0cmFuc2Zvcm09InRyYW5zbGF0ZSgtNTAuMDQzNzUwNzYyOTM5NDUsIC0zOSkiIGNsYXNzPSJsYWJlbC1ncm91cCB0ZXh0Ij48ZyB0cmFuc2Zvcm09InRyYW5zbGF0ZSgwLC0xMikiIHN0eWxlPSJmb250LXdlaWdodDogYm9sZGVyIiBjbGFzcz0ibGFiZWwiPjxmb3JlaWduT2JqZWN0IGhlaWdodD0iMjQiIHdpZHRoPSIxMDAuMDg3NTAxNTI1ODc4OSI+PGRpdiBzdHlsZT0iZGlzcGxheTogdGFibGUtY2VsbDsgd2hpdGUtc3BhY2U6IG5vd3JhcDsgbGluZS1oZWlnaHQ6IDEuNTsgbWF4LXdpZHRoOiAxNDhweDsgdGV4dC1hbGlnbjogY2VudGVyOyIgeG1sbnM9Imh0dHA6Ly93d3cudzMub3JnLzE5OTkveGh0bWwiPjxzcGFuIHN0eWxlPSIiIGNsYXNzPSJub2RlTGFiZWwgbWFya2Rvd24tbm9kZS1sYWJlbCI+PHA+Q2hhdE1lZGlhdG9yPC9wPjwvc3Bhbj48L2Rpdj48L2ZvcmVpZ25PYmplY3Q+PC9nPjwvZz48ZyB0cmFuc2Zvcm09InRyYW5zbGF0ZSgtMTcyLjYyODEyODA1MTc1NzgsIDkpIiBjbGFzcz0ibWVtYmVycy1ncm91cCB0ZXh0Ij48L2c+PGcgdHJhbnNmb3JtPSJ0cmFuc2xhdGUoLTE3Mi42MjgxMjgwNTE3NTc4LCAzOSkiIGNsYXNzPSJtZXRob2RzLWdyb3VwIHRleHQiPjxnIHRyYW5zZm9ybT0idHJhbnNsYXRlKDAsLTEyKSIgc3R5bGU9IiIgY2xhc3M9ImxhYmVsIj48Zm9yZWlnbk9iamVjdCBoZWlnaHQ9IjI0IiB3aWR0aD0iMjk1LjIxMjQ5Mzg5NjQ4NDQiPjxkaXYgc3R5bGU9ImRpc3BsYXk6IHRhYmxlLWNlbGw7IHdoaXRlLXNwYWNlOiBub3dyYXA7IGxpbmUtaGVpZ2h0OiAxLjU7IG1heC13aWR0aDogMzU0cHg7IHRleHQtYWxpZ246IGNlbnRlcjsiIHhtbG5zPSJodHRwOi8vd3d3LnczLm9yZy8xOTk5L3hodG1sIj48c3BhbiBzdHlsZT0iIiBjbGFzcz0ibm9kZUxhYmVsIG1hcmtkb3duLW5vZGUtbGFiZWwiPjxwPitzZW5kTWVzc2FnZShTdHJpbmcgbWVzc2FnZSwgVXNlciB1c2VyKTwvcD48L3NwYW4+PC9kaXY+PC9mb3JlaWduT2JqZWN0PjwvZz48ZyB0cmFuc2Zvcm09InRyYW5zbGF0ZSgwLDEyKSIgc3R5bGU9IiIgY2xhc3M9ImxhYmVsIj48Zm9yZWlnbk9iamVjdCBoZWlnaHQ9IjI0IiB3aWR0aD0iMTQ0Ljk2MjUwOTE1NTI3MzQ0Ij48ZGl2IHN0eWxlPSJkaXNwbGF5OiB0YWJsZS1jZWxsOyB3aGl0ZS1zcGFjZTogbm93cmFwOyBsaW5lLWhlaWdodDogMS41OyBtYXgtd2lkdGg6IDIwMnB4OyB0ZXh0LWFsaWduOiBjZW50ZXI7IiB4bWxucz0iaHR0cDovL3d3dy53My5vcmcvMTk5OS94aHRtbCI+PHNwYW4gc3R5bGU9IiIgY2xhc3M9Im5vZGVMYWJlbCBtYXJrZG93bi1ub2RlLWxhYmVsIj48cD4rYWRkVXNlcihVc2VyIHVzZXIpPC9wPjwvc3Bhbj48L2Rpdj48L2ZvcmVpZ25PYmplY3Q+PC9nPjwvZz48ZyBzdHlsZT0iIiBjbGFzcz0iZGl2aWRlciI+PHBhdGggc3R5bGU9IiIgZmlsbD0ibm9uZSIgc3Ryb2tlLXdpZHRoPSIxLjMiIHN0cm9rZT0iIzk5OSIgZD0iTS0xODQuNjI4MTI4MDUxNzU3OCAtMTUgQy04MS4wMTEwMjMxMTg1ODQ5NCAtMTUsIDIyLjYwNjA4MTgxNDU4NzkyNCAtMTUsIDE4NC42MjgxMjgwNTE3NTc4IC0xNSBNLTE4NC42MjgxMjgwNTE3NTc4IC0xNSBDLTUzLjM3NTUwNjc0MTE3OTE1IC0xNSwgNzcuODc3MTE0NTY5Mzk5NTEgLTE1LCAxODQuNjI4MTI4MDUxNzU3OCAtMTUiPjwvcGF0aD48L2c+PGcgc3R5bGU9IiIgY2xhc3M9ImRpdmlkZXIiPjxwYXRoIHN0eWxlPSIiIGZpbGw9Im5vbmUiIHN0cm9rZS13aWR0aD0iMS4zIiBzdHJva2U9IiM5OTkiIGQ9Ik0tMTg0LjYyODEyODA1MTc1NzggOSBDLTQzLjg5MjkxMjE4MjI4Nzg2IDksIDk2Ljg0MjMwMzY4NzE4MjEgOSwgMTg0LjYyODEyODA1MTc1NzggOSBNLTE4NC42MjgxMjgwNTE3NTc4IDkgQy0zNy4wNTAyMjkyNzU0OTg5OSA5LCAxMTAuNTI3NjY5NTAwNzU5ODMgOSwgMTg0LjYyODEyODA1MTc1NzggOSI+PC9wYXRoPjwvZz48L2c+PGcgdHJhbnNmb3JtPSJ0cmFuc2xhdGUoMjAwLjY4NzUsIDM1MC4zOTk5OTk2MTg1MzAzKSIgaWQ9ImNsYXNzSWQtQ2hhdE1lZGlhdG9ySW1wbC0xIiBjbGFzcz0ibm9kZSBkZWZhdWx0Ij48ZyBjbGFzcz0iYmFzaWMgbGFiZWwtY29udGFpbmVyIj48cGF0aCBzdHlsZT0iIiBmaWxsPSIjZWVlIiBzdHJva2Utd2lkdGg9IjAiIHN0cm9rZT0ibm9uZSIgZD0iTS0xOTIuNjg3NSAtOTYgTDE5Mi42ODc1IC05NiBMMTkyLjY4NzUgOTYgTC0xOTIuNjg3NSA5NiI+PC9wYXRoPjxwYXRoIHN0eWxlPSIiIGZpbGw9Im5vbmUiIHN0cm9rZS13aWR0aD0iMS4zIiBzdHJva2U9IiM5OTkiIGQ9Ik0tMTkyLjY4NzUgLTk2IEMtNDkuMTczOTgzNjM5NTcyNjEgLTk2LCA5NC4zMzk1MzI3MjA4NTQ3OCAtOTYsIDE5Mi42ODc1IC05NiBNLTE5Mi42ODc1IC05NiBDLTkxLjc5NDgzNjIxNDIyMzgyIC05NiwgOS4wOTc4Mjc1NzE1NTIzNTggLTk2LCAxOTIuNjg3NSAtOTYgTTE5Mi42ODc1IC05NiBDMTkyLjY4NzUgLTMyLjIyMTY1NDgxMDg4OTEzNSwgMTkyLjY4NzUgMzEuNTU2NjkwMzc4MjIxNzMsIDE5Mi42ODc1IDk2IE0xOTIuNjg3NSAtOTYgQzE5Mi42ODc1IC0yMi45NTQ4NDEyMTA4MTAwNDUsIDE5Mi42ODc1IDUwLjA5MDMxNzU3ODM3OTkxLCAxOTIuNjg3NSA5NiBNMTkyLjY4NzUgOTYgQzY2LjA4NTE5ODkwNDM3MDk4IDk2LCAtNjAuNTE3MTAyMTkxMjU4MDMgOTYsIC0xOTIuNjg3NSA5NiBNMTkyLjY4NzUgOTYgQzQ2LjI0MTM5OTc4NTIyNjA0IDk2LCAtMTAwLjIwNDcwMDQyOTU0NzkzIDk2LCAtMTkyLjY4NzUgOTYgTS0xOTIuNjg3NSA5NiBDLTE5Mi42ODc1IDM2LjQ4NDQ0MDA0MTM2MjIzNCwgLTE5Mi42ODc1IC0yMy4wMzExMTk5MTcyNzU1MzIsIC0xOTIuNjg3NSAtOTYgTS0xOTIuNjg3NSA5NiBDLTE5Mi42ODc1IDQ2LjU4NjIwNTE1NzM2NTQxLCAtMTkyLjY4NzUgLTIuODI3NTg5Njg1MjY5MTc0NCwgLTE5Mi42ODc1IC05NiI+PC9wYXRoPjwvZz48ZyB0cmFuc2Zvcm09InRyYW5zbGF0ZSgwLCAtNzIpIiBjbGFzcz0iYW5ub3RhdGlvbi1ncm91cCB0ZXh0Ij48L2c+PGcgdHJhbnNmb3JtPSJ0cmFuc2xhdGUoLTY2LjE2MjQ5ODQ3NDEyMTEsIC03MikiIGNsYXNzPSJsYWJlbC1ncm91cCB0ZXh0Ij48ZyB0cmFuc2Zvcm09InRyYW5zbGF0ZSgwLC0xMikiIHN0eWxlPSJmb250LXdlaWdodDogYm9sZGVyIiBjbGFzcz0ibGFiZWwiPjxmb3JlaWduT2JqZWN0IGhlaWdodD0iMjQiIHdpZHRoPSIxMzIuMzI0OTk2OTQ4MjQyMiI+PGRpdiBzdHlsZT0iZGlzcGxheTogdGFibGUtY2VsbDsgd2hpdGUtc3BhY2U6IG5vd3JhcDsgbGluZS1oZWlnaHQ6IDEuNTsgbWF4LXdpZHRoOiAxNzhweDsgdGV4dC1hbGlnbjogY2VudGVyOyIgeG1sbnM9Imh0dHA6Ly93d3cudzMub3JnLzE5OTkveGh0bWwiPjxzcGFuIHN0eWxlPSIiIGNsYXNzPSJub2RlTGFiZWwgbWFya2Rvd24tbm9kZS1sYWJlbCI+PHA+Q2hhdE1lZGlhdG9ySW1wbDwvcD48L3NwYW4+PC9kaXY+PC9mb3JlaWduT2JqZWN0PjwvZz48L2c+PGcgdHJhbnNmb3JtPSJ0cmFuc2xhdGUoLTE4MC42ODc1LCAtMjQpIiBjbGFzcz0ibWVtYmVycy1ncm91cCB0ZXh0Ij48ZyB0cmFuc2Zvcm09InRyYW5zbGF0ZSgwLC0xMikiIHN0eWxlPSIiIGNsYXNzPSJsYWJlbCI+PGZvcmVpZ25PYmplY3QgaGVpZ2h0PSIyNCIgd2lkdGg9IjEyMS40MDAwMDE1MjU4Nzg5Ij48ZGl2IHN0eWxlPSJkaXNwbGF5OiB0YWJsZS1jZWxsOyB3aGl0ZS1zcGFjZTogbm93cmFwOyBsaW5lLWhlaWdodDogMS41OyBtYXgtd2lkdGg6IDIxNnB4OyB0ZXh0LWFsaWduOiBjZW50ZXI7IiB4bWxucz0iaHR0cDovL3d3dy53My5vcmcvMTk5OS94aHRtbCI+PHNwYW4gc3R5bGU9IiIgY2xhc3M9Im5vZGVMYWJlbCBtYXJrZG93bi1ub2RlLWxhYmVsIj48cD4tTGlzdCZsdDtVc2VyJmd0OyB1c2VyczwvcD48L3NwYW4+PC9kaXY+PC9mb3JlaWduT2JqZWN0PjwvZz48L2c+PGcgdHJhbnNmb3JtPSJ0cmFuc2xhdGUoLTE4MC42ODc1LCAyNCkiIGNsYXNzPSJtZXRob2RzLWdyb3VwIHRleHQiPjxnIHRyYW5zZm9ybT0idHJhbnNsYXRlKDAsLTEyKSIgc3R5bGU9IiIgY2xhc3M9ImxhYmVsIj48Zm9yZWlnbk9iamVjdCBoZWlnaHQ9IjI0IiB3aWR0aD0iMTQ3LjY4NzUiPjxkaXYgc3R5bGU9ImRpc3BsYXk6IHRhYmxlLWNlbGw7IHdoaXRlLXNwYWNlOiBub3dyYXA7IGxpbmUtaGVpZ2h0OiAxLjU7IG1heC13aWR0aDogMjA2cHg7IHRleHQtYWxpZ246IGNlbnRlcjsiIHhtbG5zPSJodHRwOi8vd3d3LnczLm9yZy8xOTk5L3hodG1sIj48c3BhbiBzdHlsZT0iIiBjbGFzcz0ibm9kZUxhYmVsIG1hcmtkb3duLW5vZGUtbGFiZWwiPjxwPitDaGF0TWVkaWF0b3JJbXBsKCk8L3A+PC9zcGFuPjwvZGl2PjwvZm9yZWlnbk9iamVjdD48L2c+PGcgdHJhbnNmb3JtPSJ0cmFuc2xhdGUoMCwxMikiIHN0eWxlPSIiIGNsYXNzPSJsYWJlbCI+PGZvcmVpZ25PYmplY3QgaGVpZ2h0PSIyNCIgd2lkdGg9IjI5NS4yMTI0OTM4OTY0ODQ0Ij48ZGl2IHN0eWxlPSJkaXNwbGF5OiB0YWJsZS1jZWxsOyB3aGl0ZS1zcGFjZTogbm93cmFwOyBsaW5lLWhlaWdodDogMS41OyBtYXgtd2lkdGg6IDM1NHB4OyB0ZXh0LWFsaWduOiBjZW50ZXI7IiB4bWxucz0iaHR0cDovL3d3dy53My5vcmcvMTk5OS94aHRtbCI+PHNwYW4gc3R5bGU9IiIgY2xhc3M9Im5vZGVMYWJlbCBtYXJrZG93bi1ub2RlLWxhYmVsIj48cD4rc2VuZE1lc3NhZ2UoU3RyaW5nIG1lc3NhZ2UsIFVzZXIgdXNlcik8L3A+PC9zcGFuPjwvZGl2PjwvZm9yZWlnbk9iamVjdD48L2c+PGcgdHJhbnNmb3JtPSJ0cmFuc2xhdGUoMCwzNikiIHN0eWxlPSIiIGNsYXNzPSJsYWJlbCI+PGZvcmVpZ25PYmplY3QgaGVpZ2h0PSIyNCIgd2lkdGg9IjE0NC45NjI1MDkxNTUyNzM0NCI+PGRpdiBzdHlsZT0iZGlzcGxheTogdGFibGUtY2VsbDsgd2hpdGUtc3BhY2U6IG5vd3JhcDsgbGluZS1oZWlnaHQ6IDEuNTsgbWF4LXdpZHRoOiAyMDJweDsgdGV4dC1hbGlnbjogY2VudGVyOyIgeG1sbnM9Imh0dHA6Ly93d3cudzMub3JnLzE5OTkveGh0bWwiPjxzcGFuIHN0eWxlPSIiIGNsYXNzPSJub2RlTGFiZWwgbWFya2Rvd24tbm9kZS1sYWJlbCI+PHA+K2FkZFVzZXIoVXNlciB1c2VyKTwvcD48L3NwYW4+PC9kaXY+PC9mb3JlaWduT2JqZWN0PjwvZz48L2c+PGcgc3R5bGU9IiIgY2xhc3M9ImRpdmlkZXIiPjxwYXRoIHN0eWxlPSIiIGZpbGw9Im5vbmUiIHN0cm9rZS13aWR0aD0iMS4zIiBzdHJva2U9IiM5OTkiIGQ9Ik0tMTkyLjY4NzUgLTQ4IEMtNjUuMTIxMDc1NTAzNzE5IC00OCwgNjIuNDQ1MzQ4OTkyNTYyIC00OCwgMTkyLjY4NzUgLTQ4IE0tMTkyLjY4NzUgLTQ4IEMtMTAyLjE3NDc3OTY3Nzc3NTk5IC00OCwgLTExLjY2MjA1OTM1NTU1MTk3NSAtNDgsIDE5Mi42ODc1IC00OCI+PC9wYXRoPjwvZz48ZyBzdHlsZT0iIiBjbGFzcz0iZGl2aWRlciI+PHBhdGggc3R5bGU9IiIgZmlsbD0ibm9uZSIgc3Ryb2tlLXdpZHRoPSIxLjMiIHN0cm9rZT0iIzk5OSIgZD0iTS0xOTIuNjg3NSAwIEMtODEuNDMxODUzODE1MTU4MDkgMCwgMjkuODIzNzkyMzY5NjgzODE1IDAsIDE5Mi42ODc1IDAgTS0xOTIuNjg3NSAwIEMtNzguNTk0MDM4NzAzMTczNTggMCwgMzUuNDk5NDIyNTkzNjUyODQgMCwgMTkyLjY4NzUgMCI+PC9wYXRoPjwvZz48L2c+PGcgdHJhbnNmb3JtPSJ0cmFuc2xhdGUoMzQ3LjY4NzUsIDYyNi43OTk5OTkyMzcwNjA1KSIgaWQ9ImNsYXNzSWQtVXNlci0yIiBjbGFzcz0ibm9kZSBkZWZhdWx0Ij48ZyBjbGFzcz0iYmFzaWMgbGFiZWwtY29udGFpbmVyIj48cGF0aCBzdHlsZT0iIiBmaWxsPSIjZWVlIiBzdHJva2Utd2lkdGg9IjAiIHN0cm9rZT0ibm9uZSIgZD0iTS0xNzcuNTYyNTE1MjU4Nzg5MDYgLTEwOCBMMTc3LjU2MjUxNTI1ODc4OTA2IC0xMDggTDE3Ny41NjI1MTUyNTg3ODkwNiAxMDggTC0xNzcuNTYyNTE1MjU4Nzg5MDYgMTA4Ij48L3BhdGg+PHBhdGggc3R5bGU9IiIgZmlsbD0ibm9uZSIgc3Ryb2tlLXdpZHRoPSIxLjMiIHN0cm9rZT0iIzk5OSIgZD0iTS0xNzcuNTYyNTE1MjU4Nzg5MDYgLTEwOCBDLTk4Ljk2Mjg0ODUzMjM5MDc0IC0xMDgsIC0yMC4zNjMxODE4MDU5OTI0MSAtMTA4LCAxNzcuNTYyNTE1MjU4Nzg5MDYgLTEwOCBNLTE3Ny41NjI1MTUyNTg3ODkwNiAtMTA4IEMtNTEuMTQ3MTkyNjIyNzY4ODg0IC0xMDgsIDc1LjI2ODEzMDAxMzI1MTMgLTEwOCwgMTc3LjU2MjUxNTI1ODc4OTA2IC0xMDggTTE3Ny41NjI1MTUyNTg3ODkwNiAtMTA4IEMxNzcuNTYyNTE1MjU4Nzg5MDYgLTI2LjY3MTQzODYzODM1Nzk1NSwgMTc3LjU2MjUxNTI1ODc4OTA2IDU0LjY1NzEyMjcyMzI4NDA5LCAxNzcuNTYyNTE1MjU4Nzg5MDYgMTA4IE0xNzcuNTYyNTE1MjU4Nzg5MDYgLTEwOCBDMTc3LjU2MjUxNTI1ODc4OTA2IC0zOS4zNTQ5NDMyOTIwMjkwMiwgMTc3LjU2MjUxNTI1ODc4OTA2IDI5LjI5MDExMzQxNTk0MTk2LCAxNzcuNTYyNTE1MjU4Nzg5MDYgMTA4IE0xNzcuNTYyNTE1MjU4Nzg5MDYgMTA4IEM2My45NTg4MTU3MTkxMzkzNjYgMTA4LCAtNDkuNjQ0ODgzODIwNTEwMzMgMTA4LCAtMTc3LjU2MjUxNTI1ODc4OTA2IDEwOCBNMTc3LjU2MjUxNTI1ODc4OTA2IDEwOCBDNjcuMjE2OTYwMzA5MTcyMzQgMTA4LCAtNDMuMTI4NTk0NjQwNDQ0MzkgMTA4LCAtMTc3LjU2MjUxNTI1ODc4OTA2IDEwOCBNLTE3Ny41NjI1MTUyNTg3ODkwNiAxMDggQy0xNzcuNTYyNTE1MjU4Nzg5MDYgNjEuNzMzODYyMTAzMTEzMTQsIC0xNzcuNTYyNTE1MjU4Nzg5MDYgMTUuNDY3NzI0MjA2MjI2MjgsIC0xNzcuNTYyNTE1MjU4Nzg5MDYgLTEwOCBNLTE3Ny41NjI1MTUyNTg3ODkwNiAxMDggQy0xNzcuNTYyNTE1MjU4Nzg5MDYgMjguNTM5ODU1NTkxNzMxNTI0LCAtMTc3LjU2MjUxNTI1ODc4OTA2IC01MC45MjAyODg4MTY1MzY5NSwgLTE3Ny41NjI1MTUyNTg3ODkwNiAtMTA4Ij48L3BhdGg+PC9nPjxnIHRyYW5zZm9ybT0idHJhbnNsYXRlKDAsIC04NCkiIGNsYXNzPSJhbm5vdGF0aW9uLWdyb3VwIHRleHQiPjwvZz48ZyB0cmFuc2Zvcm09InRyYW5zbGF0ZSgtMTYuODg3NTAwNzYyOTM5NDUzLCAtODQpIiBjbGFzcz0ibGFiZWwtZ3JvdXAgdGV4dCI+PGcgdHJhbnNmb3JtPSJ0cmFuc2xhdGUoMCwtMTIpIiBzdHlsZT0iZm9udC13ZWlnaHQ6IGJvbGRlciIgY2xhc3M9ImxhYmVsIj48Zm9yZWlnbk9iamVjdCBoZWlnaHQ9IjI0IiB3aWR0aD0iMzMuNzc1MDAxNTI1ODc4OTA2Ij48ZGl2IHN0eWxlPSJkaXNwbGF5OiB0YWJsZS1jZWxsOyB3aGl0ZS1zcGFjZTogbm93cmFwOyBsaW5lLWhlaWdodDogMS41OyBtYXgtd2lkdGg6IDgzcHg7IHRleHQtYWxpZ246IGNlbnRlcjsiIHhtbG5zPSJodHRwOi8vd3d3LnczLm9yZy8xOTk5L3hodG1sIj48c3BhbiBzdHlsZT0iIiBjbGFzcz0ibm9kZUxhYmVsIG1hcmtkb3duLW5vZGUtbGFiZWwiPjxwPlVzZXI8L3A+PC9zcGFuPjwvZGl2PjwvZm9yZWlnbk9iamVjdD48L2c+PC9nPjxnIHRyYW5zZm9ybT0idHJhbnNsYXRlKC0xNjUuNTYyNTE1MjU4Nzg5MDYsIC0zNikiIGNsYXNzPSJtZW1iZXJzLWdyb3VwIHRleHQiPjxnIHRyYW5zZm9ybT0idHJhbnNsYXRlKDAsLTEyKSIgc3R5bGU9IiIgY2xhc3M9ImxhYmVsIj48Zm9yZWlnbk9iamVjdCBoZWlnaHQ9IjI0IiB3aWR0aD0iOTEuNDUwMDA0NTc3NjM2NzIiPjxkaXYgc3R5bGU9ImRpc3BsYXk6IHRhYmxlLWNlbGw7IHdoaXRlLXNwYWNlOiBub3dyYXA7IGxpbmUtaGVpZ2h0OiAxLjU7IG1heC13aWR0aDogMTQ4cHg7IHRleHQtYWxpZ246IGNlbnRlcjsiIHhtbG5zPSJodHRwOi8vd3d3LnczLm9yZy8xOTk5L3hodG1sIj48c3BhbiBzdHlsZT0iIiBjbGFzcz0ibm9kZUxhYmVsIG1hcmtkb3duLW5vZGUtbGFiZWwiPjxwPi1TdHJpbmcgbmFtZTwvcD48L3NwYW4+PC9kaXY+PC9mb3JlaWduT2JqZWN0PjwvZz48ZyB0cmFuc2Zvcm09InRyYW5zbGF0ZSgwLDEyKSIgc3R5bGU9IiIgY2xhc3M9ImxhYmVsIj48Zm9yZWlnbk9iamVjdCBoZWlnaHQ9IjI0IiB3aWR0aD0iMTcxLjkxMjUwNjEwMzUxNTYyIj48ZGl2IHN0eWxlPSJkaXNwbGF5OiB0YWJsZS1jZWxsOyB3aGl0ZS1zcGFjZTogbm93cmFwOyBsaW5lLWhlaWdodDogMS41OyBtYXgtd2lkdGg6IDIyOXB4OyB0ZXh0LWFsaWduOiBjZW50ZXI7IiB4bWxucz0iaHR0cDovL3d3dy53My5vcmcvMTk5OS94aHRtbCI+PHNwYW4gc3R5bGU9IiIgY2xhc3M9Im5vZGVMYWJlbCBtYXJrZG93bi1ub2RlLWxhYmVsIj48cD4tQ2hhdE1lZGlhdG9yIG1lZGlhdG9yPC9wPjwvc3Bhbj48L2Rpdj48L2ZvcmVpZ25PYmplY3Q+PC9nPjwvZz48ZyB0cmFuc2Zvcm09InRyYW5zbGF0ZSgtMTY1LjU2MjUxNTI1ODc4OTA2LCAzNikiIGNsYXNzPSJtZXRob2RzLWdyb3VwIHRleHQiPjxnIHRyYW5zZm9ybT0idHJhbnNsYXRlKDAsLTEyKSIgc3R5bGU9IiIgY2xhc3M9ImxhYmVsIj48Zm9yZWlnbk9iamVjdCBoZWlnaHQ9IjI0IiB3aWR0aD0iMzE0LjIzNzUxODMxMDU0NjkiPjxkaXYgc3R5bGU9ImRpc3BsYXk6IHRhYmxlLWNlbGw7IHdoaXRlLXNwYWNlOiBub3dyYXA7IGxpbmUtaGVpZ2h0OiAxLjU7IG1heC13aWR0aDogMzY3cHg7IHRleHQtYWxpZ246IGNlbnRlcjsiIHhtbG5zPSJodHRwOi8vd3d3LnczLm9yZy8xOTk5L3hodG1sIj48c3BhbiBzdHlsZT0iIiBjbGFzcz0ibm9kZUxhYmVsIG1hcmtkb3duLW5vZGUtbGFiZWwiPjxwPitVc2VyKFN0cmluZyBuYW1lLCBDaGF0TWVkaWF0b3IgbWVkaWF0b3IpPC9wPjwvc3Bhbj48L2Rpdj48L2ZvcmVpZ25PYmplY3Q+PC9nPjxnIHRyYW5zZm9ybT0idHJhbnNsYXRlKDAsMTIpIiBzdHlsZT0iIiBjbGFzcz0ibGFiZWwiPjxmb3JlaWduT2JqZWN0IGhlaWdodD0iMjQiIHdpZHRoPSIxNTkuNTUwMDAzMDUxNzU3OCI+PGRpdiBzdHlsZT0iZGlzcGxheTogdGFibGUtY2VsbDsgd2hpdGUtc3BhY2U6IG5vd3JhcDsgbGluZS1oZWlnaHQ6IDEuNTsgbWF4LXdpZHRoOiAyMThweDsgdGV4dC1hbGlnbjogY2VudGVyOyIgeG1sbnM9Imh0dHA6Ly93d3cudzMub3JnLzE5OTkveGh0bWwiPjxzcGFuIHN0eWxlPSIiIGNsYXNzPSJub2RlTGFiZWwgbWFya2Rvd24tbm9kZS1sYWJlbCI+PHA+K3NlbmQoU3RyaW5nIG1lc3NhZ2UpPC9wPjwvc3Bhbj48L2Rpdj48L2ZvcmVpZ25PYmplY3Q+PC9nPjxnIHRyYW5zZm9ybT0idHJhbnNsYXRlKDAsMzYpIiBzdHlsZT0iIiBjbGFzcz0ibGFiZWwiPjxmb3JlaWduT2JqZWN0IGhlaWdodD0iMjQiIHdpZHRoPSIxNzkuNDAwMDA5MTU1MjczNDQiPjxkaXYgc3R5bGU9ImRpc3BsYXk6IHRhYmxlLWNlbGw7IHdoaXRlLXNwYWNlOiBub3dyYXA7IGxpbmUtaGVpZ2h0OiAxLjU7IG1heC13aWR0aDogMjM0cHg7IHRleHQtYWxpZ246IGNlbnRlcjsiIHhtbG5zPSJodHRwOi8vd3d3LnczLm9yZy8xOTk5L3hodG1sIj48c3BhbiBzdHlsZT0iIiBjbGFzcz0ibm9kZUxhYmVsIG1hcmtkb3duLW5vZGUtbGFiZWwiPjxwPityZWNlaXZlKFN0cmluZyBtZXNzYWdlKTwvcD48L3NwYW4+PC9kaXY+PC9mb3JlaWduT2JqZWN0PjwvZz48L2c+PGcgc3R5bGU9IiIgY2xhc3M9ImRpdmlkZXIiPjxwYXRoIHN0eWxlPSIiIGZpbGw9Im5vbmUiIHN0cm9rZS13aWR0aD0iMS4zIiBzdHJva2U9IiM5OTkiIGQ9Ik0tMTc3LjU2MjUxNTI1ODc4OTA2IC02MCBDLTg5LjA2MjA2MDU1ODU0MDYxIC02MCwgLTAuNTYxNjA1ODU4MjkyMTUzOSAtNjAsIDE3Ny41NjI1MTUyNTg3ODkwNiAtNjAgTS0xNzcuNTYyNTE1MjU4Nzg5MDYgLTYwIEMtODYuMTk4NjY4Nzk0OTQ5ODQgLTYwLCA1LjE2NTE3NzY2ODg4OTM4NSAtNjAsIDE3Ny41NjI1MTUyNTg3ODkwNiAtNjAiPjwvcGF0aD48L2c+PGcgc3R5bGU9IiIgY2xhc3M9ImRpdmlkZXIiPjxwYXRoIHN0eWxlPSIiIGZpbGw9Im5vbmUiIHN0cm9rZS13aWR0aD0iMS4zIiBzdHJva2U9IiM5OTkiIGQ9Ik0tMTc3LjU2MjUxNTI1ODc4OTA2IDEyIEMtNDguNTkyNDg3NTU1NzgxMTYgMTIsIDgwLjM3NzU0MDE0NzIyNjc0IDEyLCAxNzcuNTYyNTE1MjU4Nzg5MDYgMTIgTS0xNzcuNTYyNTE1MjU4Nzg5MDYgMTIgQy00OC43MzAyODMwODUwMDUzNCAxMiwgODAuMTAxOTQ5MDg4Nzc4MzggMTIsIDE3Ny41NjI1MTUyNTg3ODkwNiAxMiI+PC9wYXRoPjwvZz48L2c+PC9nPjwvZz48L2c+PC9zdmc+;" vertex="1" parent="1">
                        <mxGeometry x="110" y="-80" width="567" height="742.7999877929688" as="geometry"/>
                    </mxCell>
                </UserObject>
            </root>
        </mxGraphModel>
    </diagram>
</mxfile>